<svg width="321" height="371" viewBox="0 0 321 371" fill="none" xmlns="http://www.w3.org/2000/svg">
<mask id="mask0_295_4280" style="mask-type:alpha" maskUnits="userSpaceOnUse" x="26" y="341" width="269" height="30">
<path d="M214.103 349.769C213.326 349.771 212.697 349.841 212.697 349.925L212.701 351.292C212.701 351.376 213.331 351.442 214.107 351.44C214.884 351.438 215.513 351.368 215.513 351.284L215.509 350.069L226.758 350.038C227.534 350.036 228.164 349.966 228.163 349.883C228.163 349.799 227.533 349.732 226.757 349.735L214.103 349.769ZM213.109 350.031C223.492 351.124 230.565 352.534 233.432 354.081L236.19 354.014C233.214 352.408 225.874 350.945 215.097 349.811L213.109 350.031ZM233.432 354.081C236.299 355.629 234.831 357.245 229.216 358.726L231.814 358.835C237.642 357.298 239.165 355.621 236.19 354.014L233.432 354.081ZM229.216 358.726C223.6 360.207 214.087 361.486 201.881 362.401L203.444 362.649C216.112 361.7 225.985 360.372 231.814 358.835L229.216 358.726ZM201.881 362.401C189.675 363.316 175.324 363.826 160.642 363.866L160.644 364.17C175.881 364.128 190.776 363.599 203.444 362.649L201.881 362.401ZM160.642 363.866C145.961 363.907 131.608 363.476 119.399 362.629L117.838 362.886C130.509 363.765 145.406 364.212 160.644 364.17L160.642 363.866ZM119.399 362.629C107.19 361.781 97.6738 360.555 92.0529 359.105L89.4552 359.229C95.2891 360.734 105.166 362.006 117.838 362.886L119.399 362.629ZM92.0529 359.105C86.432 357.656 84.9592 356.047 87.8207 354.484L85.0626 354.432C82.0926 356.055 83.6212 357.724 89.4552 359.229L92.0529 359.105ZM87.8207 354.484C90.6823 352.92 97.7498 351.472 108.129 350.321L106.14 350.112C95.3677 351.306 88.0326 352.809 85.0626 354.432L87.8207 354.484Z" fill="#64B5F6"/>
</mask>
<g mask="url(#mask0_295_4280)">
<g style="mix-blend-mode:difference">
<rect x="-17.0812" y="177.402" width="356" height="356" fill="#64B5F6"/>
</g>
</g>
<mask id="mask1_295_4280" style="mask-type:alpha" maskUnits="userSpaceOnUse" x="0" y="0" width="321" height="323">
<path opacity="0.4" d="M67.0422 290.845L161.088 321.402V1.40234L67.0422 31.9596L8.91876 111.96V210.845L67.0422 290.845Z" fill="url(#paint0_linear_295_4280)"/>
<path d="M161.088 1.40234L67.0422 31.9596L8.91876 111.96V210.845L67.0422 290.845L161.088 321.402" stroke="url(#paint1_linear_295_4280)" stroke-width="2" stroke-miterlimit="1" stroke-linecap="round" stroke-linejoin="round"/>
<path opacity="0.4" d="M90.5113 290.845L161.046 321.402V1.40234L90.5113 31.9596L46.9188 111.96V210.845L90.5113 290.845Z" fill="url(#paint2_linear_295_4280)"/>
<path d="M161.046 1.40234L90.5113 31.9596L46.9188 111.96V210.845L90.5113 290.845L161.046 321.402" stroke="url(#paint3_linear_295_4280)" stroke-width="2" stroke-miterlimit="1" stroke-linecap="round" stroke-linejoin="round"/>
<path opacity="0.4" d="M113.98 290.845L161.003 321.402V1.40234L113.98 31.9596L84.9188 111.96V210.845L113.98 290.845Z" fill="url(#paint4_linear_295_4280)"/>
<path d="M161.003 1.40234L113.98 31.9596L84.9188 111.96V210.845L113.98 290.845L161.003 321.402" stroke="url(#paint5_linear_295_4280)" stroke-width="2" stroke-miterlimit="1" stroke-linecap="round" stroke-linejoin="round"/>
<path opacity="0.4" d="M137.45 290.845L160.961 321.402V1.40234L137.45 31.9596L122.919 111.96V210.845L137.45 290.845Z" fill="url(#paint6_linear_295_4280)"/>
<path d="M160.961 1.40234L137.45 31.9596L122.919 111.96V210.845L137.45 290.845L160.961 321.402" stroke="url(#paint7_linear_295_4280)" stroke-width="2" stroke-miterlimit="1" stroke-linecap="round" stroke-linejoin="round"/>
<path opacity="0.4" d="M184.388 290.845L160.877 321.402V1.40234L184.388 31.9596L198.919 111.96V210.845L184.388 290.845Z" fill="url(#paint8_linear_295_4280)"/>
<path d="M160.877 1.40234L184.388 31.9596L198.919 111.96V210.845L184.388 290.845L160.877 321.402" stroke="url(#paint9_linear_295_4280)" stroke-width="2" stroke-miterlimit="1" stroke-linecap="round" stroke-linejoin="round"/>
<path opacity="0.4" d="M207.857 290.845L160.834 321.402V1.40234L207.857 31.9596L236.919 111.96V210.845L207.857 290.845Z" fill="url(#paint10_linear_295_4280)"/>
<path d="M160.834 1.40234L207.857 31.9596L236.919 111.96V210.845L207.857 290.845L160.834 321.402" stroke="url(#paint11_linear_295_4280)" stroke-width="2" stroke-miterlimit="1" stroke-linecap="round" stroke-linejoin="round"/>
<path opacity="0.4" d="M231.326 290.845L160.792 321.402V1.40234L231.326 31.9596L274.919 111.96V210.845L231.326 290.845Z" fill="url(#paint12_linear_295_4280)"/>
<path d="M160.792 1.40234L231.326 31.9596L274.919 111.96V210.845L231.326 290.845L160.792 321.402" stroke="url(#paint13_linear_295_4280)" stroke-width="2" stroke-miterlimit="1" stroke-linecap="round" stroke-linejoin="round"/>
<path opacity="0.4" d="M254.795 290.845L160.75 321.402V1.40234L254.795 31.9596L312.919 111.96V210.845L254.795 290.845Z" fill="url(#paint14_linear_295_4280)"/>
<path d="M160.75 1.40234L254.795 31.9596L312.919 111.96V210.845L254.795 290.845L160.75 321.402" stroke="url(#paint15_linear_295_4280)" stroke-width="2" stroke-miterlimit="1" stroke-linecap="round" stroke-linejoin="round"/>
</mask>
<g mask="url(#mask1_295_4280)">
<g style="mix-blend-mode:darken" opacity="0.5">
<path d="M254.964 290.845L313.088 210.845H8.74969L66.8731 290.845H254.964Z" fill="black"/>
</g>
<g style="mix-blend-mode:darken">
<path d="M313.088 210.845V111.96H8.74969V210.845H313.088Z" fill="black"/>
</g>
<g style="mix-blend-mode:darken" opacity="0.5">
<path d="M313.088 111.96L254.964 31.9596H66.8731L8.74969 111.96H313.088Z" fill="black"/>
</g>
<g style="mix-blend-mode:difference">
<rect x="-17.0812" y="-16.5977" width="356" height="356" fill="#64B5F6"/>
</g>
<g style="mix-blend-mode:luminosity" opacity="0.2" filter="url(#filter0_f_295_4280)">
<circle cx="160.919" cy="-285.598" r="488" fill="white"/>
</g>
</g>
<defs>
<filter id="filter0_f_295_4280" x="-455.081" y="-901.598" width="1232" height="1232" filterUnits="userSpaceOnUse" color-interpolation-filters="sRGB">
<feFlood flood-opacity="0" result="BackgroundImageFix"/>
<feBlend mode="normal" in="SourceGraphic" in2="BackgroundImageFix" result="shape"/>
<feGaussianBlur stdDeviation="64" result="effect1_foregroundBlur_295_4280"/>
</filter>
<linearGradient id="paint0_linear_295_4280" x1="160.92" y1="1.403" x2="160.919" y2="321.402" gradientUnits="userSpaceOnUse">
<stop stop-color="white"/>
<stop offset="1" stop-color="white" stop-opacity="0"/>
</linearGradient>
<linearGradient id="paint1_linear_295_4280" x1="160.92" y1="1.403" x2="160.919" y2="321.402" gradientUnits="userSpaceOnUse">
<stop stop-color="white"/>
<stop offset="1" stop-color="white" stop-opacity="0"/>
</linearGradient>
<linearGradient id="paint2_linear_295_4280" x1="160.919" y1="1.403" x2="160.918" y2="321.402" gradientUnits="userSpaceOnUse">
<stop stop-color="white"/>
<stop offset="1" stop-color="white" stop-opacity="0"/>
</linearGradient>
<linearGradient id="paint3_linear_295_4280" x1="160.919" y1="1.403" x2="160.918" y2="321.402" gradientUnits="userSpaceOnUse">
<stop stop-color="white"/>
<stop offset="1" stop-color="white" stop-opacity="0"/>
</linearGradient>
<linearGradient id="paint4_linear_295_4280" x1="160.919" y1="1.403" x2="160.917" y2="321.402" gradientUnits="userSpaceOnUse">
<stop stop-color="white"/>
<stop offset="1" stop-color="white" stop-opacity="0"/>
</linearGradient>
<linearGradient id="paint5_linear_295_4280" x1="160.919" y1="1.403" x2="160.917" y2="321.402" gradientUnits="userSpaceOnUse">
<stop stop-color="white"/>
<stop offset="1" stop-color="white" stop-opacity="0"/>
</linearGradient>
<linearGradient id="paint6_linear_295_4280" x1="160.919" y1="1.403" x2="160.915" y2="321.402" gradientUnits="userSpaceOnUse">
<stop stop-color="white"/>
<stop offset="1" stop-color="white" stop-opacity="0"/>
</linearGradient>
<linearGradient id="paint7_linear_295_4280" x1="160.919" y1="1.403" x2="160.915" y2="321.402" gradientUnits="userSpaceOnUse">
<stop stop-color="white"/>
<stop offset="1" stop-color="white" stop-opacity="0"/>
</linearGradient>
<linearGradient id="paint8_linear_295_4280" x1="160.919" y1="1.403" x2="160.922" y2="321.402" gradientUnits="userSpaceOnUse">
<stop stop-color="white"/>
<stop offset="1" stop-color="white" stop-opacity="0"/>
</linearGradient>
<linearGradient id="paint9_linear_295_4280" x1="160.919" y1="1.403" x2="160.922" y2="321.402" gradientUnits="userSpaceOnUse">
<stop stop-color="white"/>
<stop offset="1" stop-color="white" stop-opacity="0"/>
</linearGradient>
<linearGradient id="paint10_linear_295_4280" x1="160.918" y1="1.403" x2="160.92" y2="321.402" gradientUnits="userSpaceOnUse">
<stop stop-color="white"/>
<stop offset="1" stop-color="white" stop-opacity="0"/>
</linearGradient>
<linearGradient id="paint11_linear_295_4280" x1="160.918" y1="1.403" x2="160.92" y2="321.402" gradientUnits="userSpaceOnUse">
<stop stop-color="white"/>
<stop offset="1" stop-color="white" stop-opacity="0"/>
</linearGradient>
<linearGradient id="paint12_linear_295_4280" x1="160.918" y1="1.403" x2="160.919" y2="321.402" gradientUnits="userSpaceOnUse">
<stop stop-color="white"/>
<stop offset="1" stop-color="white" stop-opacity="0"/>
</linearGradient>
<linearGradient id="paint13_linear_295_4280" x1="160.918" y1="1.403" x2="160.919" y2="321.402" gradientUnits="userSpaceOnUse">
<stop stop-color="white"/>
<stop offset="1" stop-color="white" stop-opacity="0"/>
</linearGradient>
<linearGradient id="paint14_linear_295_4280" x1="160.918" y1="1.403" x2="160.919" y2="321.402" gradientUnits="userSpaceOnUse">
<stop stop-color="white"/>
<stop offset="1" stop-color="white" stop-opacity="0"/>
</linearGradient>
<linearGradient id="paint15_linear_295_4280" x1="160.918" y1="1.403" x2="160.919" y2="321.402" gradientUnits="userSpaceOnUse">
<stop stop-color="white"/>
<stop offset="1" stop-color="white" stop-opacity="0"/>
</linearGradient>
</defs>
</svg>
